<?xml version="1.0" encoding="UTF-8"?>
<svg id="favicon" xmlns="http://www.w3.org/2000/svg" viewBox="0 0 512 512">
  <defs>
    <style>
      .cls-1 { fill: #f9b822; }
      .cls-2 { fill: #ef7786; }
      .cls-3 { fill: #2da8d1; }
    </style>
  </defs>
  <g transform="translate(50, 100) scale(0.6)">
    <path class="cls-3" d="M430.45,299.73l140.47-57.57c7.47-3.06,9.24-12.83,3.34-18.32l-93.21-86.7c-5.91-5.49-15.52-3.01-18.03,4.65l-47.26,144.26c-2.94,8.96,5.97,17.24,14.7,13.67Z"/>
    <path class="cls-2" d="M544.07,175.19c4.48,7.15,15.34.35,22.91-6.14,8.66-7.43,26.38-10.58,32.47-20.21,7.07-11.18,6.75-31.31-4.53-35.94-7.38-3.03-17.04,3.18-24.53,10.25-2.77,2.62-5.25,5.35-7.2,7.78-13.89,20.12-22.52,36.49-19.11,44.26Z"/>
    <path class="cls-3" d="M568.37,72.75c-.1-12.89-1.13-31.78,2.54-44.11,4.25-14.31,19.3-31.69,31.54-25.53,8.01,4.03,12.57,14.3,12.11,25.91-.17,4.3-2.3,16.2-3.8,19.38-7.49,15.89-15.84,48.53-28.6,50.32-10.29-.77-13.94-10.73-13.8-25.97Z"/>
    <path class="cls-3" d="M611.16,166.51c-.51-.89-.83-1.94-.89-3.18-.35-6.4,3.88-9.95,10.01-10.21,12.96-.57,25.82-1.76,37.99-6.6,13.06-5.2,16.63-11.55,31.29-9.54,11.41,1.56,22.88,11.37,19.44,23.94-5.26,19.2-30.82,20.73-47.02,18.81-9.63-1.14-19.22-2.64-28.76-4.4-7.26-1.34-17.91-1.53-22.05-8.81Z"/>
    <path class="cls-1" d="M572.26,199.65c.09-4.26,5.44-8.62,15.82-10.55,31.8-5.92,91.98,24.9,90.13,47.72-.87,10.66-12.5,21.48-21.57,21.14-10.38-.39-9.31-6.07-27.82-19.52-6.19-4.5-18.54-16.99-32.74-21.64-26.85-8.8-23.89-13.41-23.81-17.15Z"/>
    <path class="cls-1" d="M528.37,153.92c1.89-1.08,2.66-3.07,3.09-5.19.8-3.9,1.98-7.76,3.17-11.57,17.19-55.35,8.12-128.52-20.17-135.79-13.21-3.4-27.74-.74-31.32,11.06-7.07,23.3,12.85,23.47,21.8,53.21,2.99,9.94,9.25,36.51,9.27,56.91,0,6.06.15,12.17.93,18.19.43,3.32.99,6.8,2.43,9.86.9,1.91,2.29,3.5,4.43,3.93,1.86.38,4.02.44,5.83-.35.19-.08.37-.17.54-.27Z"/>
    <path class="cls-2" d="M489.93,77.23c0-12.81-2.34-23.41-15.15-23.41-3.49,0-6.8.77-9.77,2.15-7.93,3.69-13.42,11.72-13.42,21.04,0,12.81,19.83,31.15,32.64,31.15s5.71-18.13,5.71-30.94Z"/>
    <path class="cls-1" d="M642.45,81.08c7.7-9.39,15.78-15.75,25.17-8.06,2.56,2.1,4.52,4.65,5.87,7.45,3.6,7.47,2.8,16.66-2.8,23.5-7.7,9.39-33.25,10.92-42.64,3.22s6.7-16.72,14.4-26.12Z"/>
  </g>
</svg>
