<?xml version="1.0" encoding="UTF-8"?>
<svg id="Layer_2" data-name="Layer 2" xmlns="http://www.w3.org/2000/svg" viewBox="0 0 709.61 316.75">
  <defs>
    <style>
      .cls-1 {
        fill: #f9b822;
      }

      .cls-2 {
        fill: #ef7786;
      }

      .cls-3 {
        fill: #2da8d1;
      }
    </style>
  </defs>
  <g id="Layer_1-2" data-name="Layer 1">
    <g>
      <g>
        <path d="M12.62,51.09c-3.54,0-6.52-1.22-8.96-3.66s-3.66-5.42-3.66-8.96,1.22-6.64,3.66-9.03c2.44-2.39,5.42-3.58,8.96-3.58s6.64,1.2,9.03,3.58c2.39,2.39,3.58,5.4,3.58,9.03s-1.2,6.52-3.58,8.96c-2.39,2.44-5.4,3.66-9.03,3.66ZM1.29,150.29v-86.01h22.51v86.01H1.29Z"/>
        <path d="M36.9,150.29v-86.01h20.21v10.61c3.15-4.3,7.02-7.57,11.61-9.82,4.59-2.24,9.56-3.37,14.91-3.37,6.11,0,11.83,1.48,17.13,4.44,5.3,2.96,9.58,7.24,12.83,12.83,3.25,5.59,4.87,12.4,4.87,20.43v50.89h-22.51v-47.88c0-5.35-1.58-10.08-4.73-14.19-3.15-4.11-7.65-6.16-13.48-6.16-4.78,0-9.03,1.65-12.76,4.95-3.73,3.3-5.59,8.29-5.59,14.98v48.31h-22.51Z"/>
        <path d="M181.14,152.3c-5.54,0-10.68-1-15.41-3.01-4.73-2.01-8.82-4.73-12.26-8.17v9.17h-19.64V12.67h22.51v58.2c3.34-2.67,7.1-4.78,11.25-6.31,4.16-1.53,8.67-2.29,13.55-2.29,8.03,0,15.29,2.03,21.79,6.09,6.5,4.06,11.68,9.49,15.55,16.27,3.87,6.79,5.81,14.34,5.81,22.65s-1.94,15.75-5.81,22.58c-3.87,6.83-9.06,12.28-15.55,16.34-6.5,4.06-13.76,6.09-21.79,6.09ZM178.56,132.37c4.49,0,8.58-1.12,12.26-3.37,3.68-2.24,6.62-5.25,8.82-9.03,2.2-3.77,3.3-8,3.3-12.69s-1.1-8.77-3.3-12.54c-2.2-3.77-5.14-6.81-8.82-9.1-3.68-2.29-7.81-3.44-12.4-3.44s-8.58,1.12-12.26,3.37c-3.68,2.25-6.62,5.26-8.82,9.03-2.2,3.78-3.3,8.01-3.3,12.69s1.1,8.77,3.3,12.54c2.2,3.78,5.14,6.81,8.82,9.1,3.68,2.29,7.81,3.44,12.4,3.44Z"/>
        <path d="M277.93,152.87c-8.51,0-16.27-2.03-23.29-6.09s-12.59-9.56-16.7-16.49c-4.11-6.93-6.16-14.55-6.16-22.86s2.05-16.2,6.16-23.08c4.11-6.88,9.68-12.38,16.7-16.49,7.02-4.11,14.74-6.16,23.15-6.16s16.39,2.03,23.37,6.09c6.97,4.06,12.54,9.53,16.7,16.41,4.16,6.88,6.24,14.53,6.24,22.94s-2.08,16.08-6.24,23.01c-4.16,6.93-9.73,12.45-16.7,16.56-6.98,4.11-14.72,6.16-23.22,6.16ZM277.93,132.52c4.59,0,8.74-1.15,12.47-3.44,3.73-2.29,6.69-5.35,8.89-9.17,2.2-3.82,3.3-8.03,3.3-12.62s-1.12-8.91-3.37-12.69c-2.25-3.77-5.23-6.81-8.96-9.1-3.73-2.29-7.88-3.44-12.47-3.44s-8.74,1.15-12.47,3.44c-3.73,2.29-6.69,5.33-8.89,9.1-2.2,3.78-3.3,8.01-3.3,12.69s1.1,8.79,3.3,12.62c2.2,3.82,5.16,6.88,8.89,9.17,3.73,2.29,7.93,3.44,12.62,3.44Z"/>
        <path d="M322.06,150.29l29.82-45.01-27.09-41h25.09l8.31,13.19c1.24,1.91,2.46,3.92,3.66,6.02,1.19,2.1,2.32,4.3,3.37,6.59,1.15-2.29,2.32-4.47,3.51-6.52,1.19-2.05,2.41-4.09,3.66-6.09l8.17-13.19h24.8l-27.24,41,29.96,45.01h-25.37l-11.75-18.78c-1.05-1.72-2.13-3.49-3.23-5.3-1.1-1.81-2.08-3.63-2.94-5.45-.96,1.82-1.96,3.63-3.01,5.45-1.05,1.82-2.1,3.58-3.15,5.3l-11.75,18.78h-24.8Z"/>
      </g>
      <path d="M1.1,316.75v-124.07h18.89v8.82c3.31-3.31,7.24-5.93,11.79-7.86,4.55-1.93,9.49-2.9,14.82-2.9,7.72,0,14.7,1.95,20.95,5.86,6.25,3.91,11.23,9.12,14.96,15.65,3.72,6.53,5.58,13.79,5.58,21.78s-1.86,15.14-5.58,21.71c-3.72,6.57-8.71,11.81-14.96,15.72-6.25,3.91-13.23,5.86-20.95,5.86-4.69,0-9.03-.74-13.03-2.21-4-1.47-7.61-3.49-10.82-6.07v47.7H1.1ZM44.11,258.16c4.32,0,8.25-1.08,11.79-3.24,3.54-2.16,6.36-5.05,8.48-8.69,2.11-3.63,3.17-7.7,3.17-12.2s-1.06-8.43-3.17-12.06c-2.12-3.63-4.94-6.55-8.48-8.75-3.54-2.21-7.51-3.31-11.92-3.31s-8.25,1.08-11.79,3.24c-3.54,2.16-6.37,5.06-8.48,8.69-2.12,3.63-3.17,7.7-3.17,12.2s1.06,8.43,3.17,12.06c2.11,3.63,4.94,6.55,8.48,8.75,3.54,2.21,7.51,3.31,11.92,3.31Z"/>
      <path d="M132.53,277.32c-7.54,0-14.43-1.95-20.68-5.86-6.25-3.91-11.24-9.12-14.96-15.65-3.72-6.52-5.58-13.79-5.58-21.78s1.86-15.14,5.58-21.71c3.72-6.57,8.71-11.81,14.96-15.72,6.25-3.91,13.14-5.86,20.68-5.86,5.42,0,10.43.97,15.03,2.9,4.59,1.93,8.5,4.64,11.72,8.13v-9.1h18.89v82.71h-18.89v-9.1c-3.22,3.4-7.12,6.09-11.72,8.06-4.6,1.98-9.6,2.96-15.03,2.96ZM135.29,258.16c4.32,0,8.25-1.08,11.79-3.24,3.54-2.16,6.36-5.05,8.48-8.69,2.11-3.63,3.17-7.7,3.17-12.2s-1.06-8.43-3.17-12.06c-2.12-3.63-4.94-6.55-8.48-8.75-3.54-2.21-7.51-3.31-11.92-3.31s-8.25,1.08-11.79,3.24c-3.54,2.16-6.36,5.06-8.48,8.69-2.12,3.63-3.17,7.7-3.17,12.2s1.06,8.43,3.17,12.06c2.11,3.63,4.94,6.55,8.48,8.75,3.54,2.21,7.51,3.31,11.92,3.31Z"/>
      <path d="M190.62,275.39v-82.71h19.44v14.48c2.94-4.78,6.64-8.52,11.1-11.24,4.46-2.71,9.76-4.07,15.92-4.07l4.82,19.58c-1.75-.55-3.72-.83-5.93-.83-7.17,0-12.91,2.3-17.23,6.89-4.32,4.6-6.48,11.12-6.48,19.58v38.32h-21.64Z"/>
      <path d="M267.24,275.39v-65.34h-16.27v-17.37h16.68v-27.57h20.82v27.57h17.37v17.37h-16.96v65.34h-21.64Z"/>
      <path d="M321.12,316.75l27.43-54.87-34.05-69.2h23.99l15.3,31.71c1.38,2.85,2.62,5.51,3.72,8,1.1,2.48,2.07,5.06,2.9,7.72.92-2.66,1.95-5.24,3.1-7.72,1.15-2.48,2.46-5.15,3.93-8l15.58-31.71h23.02l-61.62,124.07h-23.3Z"/>
    </g>
    <g>
      <path class="cls-3" d="M430.45,299.73l140.47-57.57c7.47-3.06,9.24-12.83,3.34-18.32l-93.21-86.7c-5.91-5.49-15.52-3.01-18.03,4.65l-47.26,144.26c-2.94,8.96,5.97,17.24,14.7,13.67Z"/>
      <path class="cls-2" d="M544.07,175.19c4.48,7.15,15.34.35,22.91-6.14,8.66-7.43,26.38-10.58,32.47-20.21,7.07-11.18,6.75-31.31-4.53-35.94-7.38-3.03-17.04,3.18-24.53,10.25-2.77,2.62-5.25,5.35-7.2,7.78-13.89,20.12-22.52,36.49-19.11,44.26Z"/>
      <path class="cls-3" d="M568.37,72.75c-.1-12.89-1.13-31.78,2.54-44.11,4.25-14.31,19.3-31.69,31.54-25.53,8.01,4.03,12.57,14.3,12.11,25.91-.17,4.3-2.3,16.2-3.8,19.38-7.49,15.89-15.84,48.53-28.6,50.32-10.29-.77-13.94-10.73-13.8-25.97Z"/>
      <path class="cls-3" d="M611.16,166.51c-.51-.89-.83-1.94-.89-3.18-.35-6.4,3.88-9.95,10.01-10.21,12.96-.57,25.82-1.76,37.99-6.6,13.06-5.2,16.63-11.55,31.29-9.54,11.41,1.56,22.88,11.37,19.44,23.94-5.26,19.2-30.82,20.73-47.02,18.81-9.63-1.14-19.22-2.64-28.76-4.4-7.26-1.34-17.91-1.53-22.05-8.81Z"/>
      <path class="cls-1" d="M572.26,199.65c.09-4.26,5.44-8.62,15.82-10.55,31.8-5.92,91.98,24.9,90.13,47.72-.87,10.66-12.5,21.48-21.57,21.14-10.38-.39-9.31-6.07-27.82-19.52-6.19-4.5-18.54-16.99-32.74-21.64-26.85-8.8-23.89-13.41-23.81-17.15Z"/>
      <path class="cls-1" d="M528.37,153.92c1.89-1.08,2.66-3.07,3.09-5.19.8-3.9,1.98-7.76,3.17-11.57,17.19-55.35,8.12-128.52-20.17-135.79-13.21-3.4-27.74-.74-31.32,11.06-7.07,23.3,12.85,23.47,21.8,53.21,2.99,9.94,9.25,36.51,9.27,56.91,0,6.06.15,12.17.93,18.19.43,3.32.99,6.8,2.43,9.86.9,1.91,2.29,3.5,4.43,3.93,1.86.38,4.02.44,5.83-.35.19-.08.37-.17.54-.27Z"/>
      <path class="cls-2" d="M489.93,77.23c0-12.81-2.34-23.41-15.15-23.41-3.49,0-6.8.77-9.77,2.15-7.93,3.69-13.42,11.72-13.42,21.04,0,12.81,19.83,31.15,32.64,31.15s5.71-18.13,5.71-30.94Z"/>
      <path class="cls-1" d="M642.45,81.08c7.7-9.39,15.78-15.75,25.17-8.06,2.56,2.1,4.52,4.65,5.87,7.45,3.6,7.47,2.8,16.66-2.8,23.5-7.7,9.39-33.25,10.92-42.64,3.22s6.7-16.72,14.4-26.12Z"/>
    </g>
  </g>
</svg>